<svg xmlns="http://www.w3.org/2000/svg" width="19.793" height="23.119" viewBox="0 0 19.793 23.119">
  <path d="M16.776,27.069a.825.825,0,1,1,0-1.649h7.367V23.935H21.724a1.643,1.643,0,0,1-1.649-1.649V17.447A1.643,1.643,0,0,1,21.724,15.8h2.419V13.929A8.128,8.128,0,0,0,21.752,8.06a7.789,7.789,0,0,0-5.8-2.46A7.967,7.967,0,0,0,10.1,8.06a8.034,8.034,0,0,0-2.447,5.869V15.8h2.419a1.643,1.643,0,0,1,1.649,1.649v4.838a1.643,1.643,0,0,1-1.649,1.649H7.649A1.691,1.691,0,0,1,6,22.286V13.929a9.672,9.672,0,0,1,.783-3.876,10.232,10.232,0,0,1,2.13-3.175,9.95,9.95,0,0,1,3.161-2.144,9.672,9.672,0,0,1,3.876-.783,9.676,9.676,0,0,1,6.982,2.928,10.281,10.281,0,0,1,2.089,3.175,9.821,9.821,0,0,1,.77,3.876V25.42a1.691,1.691,0,0,1-1.649,1.649ZM7.649,22.286h2.419V17.447H7.649Zm14.075,0h2.419V17.447H21.724Zm-14.075,0h0Zm14.075,0h0Z" transform="translate(-6 -3.95)" fill="#fff"/>
</svg>
