<svg xmlns="http://www.w3.org/2000/svg" width="25.771" height="17.855" viewBox="0 0 25.771 17.855">
  <path d="M15.235,21.986a5.03,5.03,0,0,0,5.059-5.059,5.03,5.03,0,0,0-5.059-5.059,5.03,5.03,0,0,0-5.059,5.059,5.03,5.03,0,0,0,5.059,5.059Zm0-1.726A3.3,3.3,0,0,1,11.9,16.927a3.3,3.3,0,0,1,3.333-3.333,3.3,3.3,0,0,1,3.333,3.333,3.3,3.3,0,0,1-3.333,3.333Zm0,5.595a13.287,13.287,0,0,1-7.484-2.232,15.062,15.062,0,0,1-5.223-5.892,1.165,1.165,0,0,1-.134-.357,2.254,2.254,0,0,1,0-.893,1.165,1.165,0,0,1,.134-.357,15.062,15.062,0,0,1,5.223-5.892A13.287,13.287,0,0,1,15.235,8a13.287,13.287,0,0,1,7.484,2.232,15.062,15.062,0,0,1,5.223,5.892,1.165,1.165,0,0,1,.134.357,2.254,2.254,0,0,1,0,.893,1.165,1.165,0,0,1-.134.357,15.062,15.062,0,0,1-5.223,5.892A13.287,13.287,0,0,1,15.235,25.855ZM15.235,16.927Zm0,7.142a11.967,11.967,0,0,0,6.621-1.949,12.648,12.648,0,0,0,4.6-5.193,12.649,12.649,0,0,0-4.6-5.193,12.221,12.221,0,0,0-13.242,0,12.861,12.861,0,0,0-4.627,5.193A12.861,12.861,0,0,0,8.614,22.12,11.967,11.967,0,0,0,15.235,24.069Z" transform="translate(-2.35 -8)" fill="#5c5c5c"/>
</svg>
