<svg xmlns="http://www.w3.org/2000/svg" width="12.711" height="7.239" viewBox="0 0 12.711 7.239">
  <path d="M19.013,24.454A.822.822,0,0,1,18.7,24.4a.853.853,0,0,1-.28-.2l-5.541-5.541a.77.77,0,0,1-.21-.6.861.861,0,0,1,.238-.6.7.7,0,0,1,.6-.238,1.052,1.052,0,0,1,.574.266l4.925,4.925,4.925-4.925a.914.914,0,0,1,.6-.252.662.662,0,0,1,.6.252.617.617,0,0,1,.238.588,1.09,1.09,0,0,1-.266.616L19.6,24.2a.853.853,0,0,1-.28.2.822.822,0,0,1-.308.056Z" transform="translate(-12.674 -17.215)" fill="#5c5c5c"/>
</svg>
