<svg xmlns="http://www.w3.org/2000/svg" width="17.236" height="17.211" viewBox="0 0 17.236 17.211">
  <path d="M21.921,22.942l-5.867-5.867a5.365,5.365,0,0,1-1.7.986,6.025,6.025,0,0,1-2.069.353,6.061,6.061,0,0,1-4.455-1.826A6,6,0,0,1,6,12.182,6,6,0,0,1,7.826,7.776,6.033,6.033,0,0,1,12.256,5.95a5.964,5.964,0,0,1,4.394,1.826A6.231,6.231,0,0,1,18.123,14.2,6.179,6.179,0,0,1,17.1,16.028L23.017,21.9a.638.638,0,0,1,.219.5.757.757,0,0,1-.243.548.764.764,0,0,1-1.071,0Zm-9.665-5.989a4.556,4.556,0,0,0,3.359-1.4A4.616,4.616,0,0,0,17,12.182,4.616,4.616,0,0,0,15.616,8.81a4.556,4.556,0,0,0-3.359-1.4,4.779,4.779,0,0,0-4.8,4.771,4.779,4.779,0,0,0,4.8,4.771Z" transform="translate(-6 -5.95)" fill="#1c3d81"/>
</svg>
