<svg xmlns="http://www.w3.org/2000/svg" width="23.124" height="18.793" viewBox="0 0 23.124 18.793">
  <g id="twitter_1_" data-name="twitter (1)" transform="translate(0 0)">
    <path id="Контур_919" data-name="Контур 919" d="M90.952,134.746a13.407,13.407,0,0,0,13.5-13.5c0-.205,0-.41-.014-.613a9.662,9.662,0,0,0,2.367-2.457,9.462,9.462,0,0,1-2.725.747,4.76,4.76,0,0,0,2.087-2.624,9.514,9.514,0,0,1-3.012,1.152,4.749,4.749,0,0,0-8.085,4.327,13.471,13.471,0,0,1-9.779-4.957,4.748,4.748,0,0,0,1.469,6.334,4.708,4.708,0,0,1-2.149-.594c0,.02,0,.04,0,.061a4.746,4.746,0,0,0,3.806,4.651,4.738,4.738,0,0,1-2.143.082,4.75,4.75,0,0,0,4.432,3.3,9.52,9.52,0,0,1-5.892,2.031,9.619,9.619,0,0,1-1.132-.066,13.431,13.431,0,0,0,7.272,2.131" transform="translate(-83.68 -115.953)" fill="#fff"/>
  </g>
</svg>
