<svg xmlns="http://www.w3.org/2000/svg" width="19.521" height="13.814" viewBox="0 0 19.521 13.814">
  <g id="youtube_3_" data-name="youtube (3)" transform="translate(0 0)">
    <path id="Контур_922" data-name="Контур 922" d="M124.966,152.333H113.553a4.054,4.054,0,0,0-4.054,4.054v5.705a4.054,4.054,0,0,0,4.054,4.054h11.413a4.054,4.054,0,0,0,4.054-4.054v-5.705a4.054,4.054,0,0,0-4.054-4.054Zm-2.742,7.184-5.338,2.546a.214.214,0,0,1-.307-.193v-5.251a.214.214,0,0,1,.311-.191l5.338,2.7a.214.214,0,0,1,0,.385Z" transform="translate(-109.499 -152.333)" fill="#fff"/>
  </g>
</svg>
